# xmcd
#
# Track frame offsets:
#	150
#	22702
#	39016
#	57545
#	76739
#	95222
#	120379
#	135529
#	148419
#	164259
#	190579
#	210052
# Disc length: 3041 seconds
# Revision: 9
# Processed by: cddbd v1.5.1PL0 Copyright (c) Steve Scherf et al.
#
# Submitted via: libkcddb 0.10
#
DISCID=910bdf0c
DTITLE=Bruce Springsteen - Devils and Dust
DYEAR=2005
DGENRE=Rock
TTITLE0=Devils and Dust
TTITLE1=All The Way Home
TTITLE2=Reno
TTITLE3=Long Time Comin'
TTITLE4=Black Cowboys
TTITLE5=Maria's Bed
TTITLE6=Silver Palomino
TTITLE7=Jesus Was An Only Son
TTITLE8=Leah
TTITLE9=The Hitter
TTITLE10=All I'm Thinkin' About
TTITLE11=Matamoros Banks
EXTD=By Jules YEAR: 2005
EXTT0=
EXTT1=
EXTT2=
EXTT3=
EXTT4=
EXTT5=
EXTT6=
EXTT7=
EXTT8=
EXTT9=
EXTT10=
EXTT11=
PLAYORDER=
